<svg xmlns="http://www.w3.org/2000/svg"  viewBox="0 0 1812.788 973.362">
  <g id="background-img" transform="translate(14486.322 -4811.076)">
    <g id="ghost-character" transform="matrix(0.914, -0.407, 0.407, 0.914, -13417.247, 5142.849)">
      <path id="패스_1407" data-name="패스 1407" d="M49.192,59.818V25.1A22.1,22.1,0,1,0,5,25.1V59.818H49.192ZM42.879,53.5Z" transform="translate(3.809 -4.307)" fill="#f23c4c" fill-rule="evenodd" opacity="0.1"/>
      <path id="패스_625" data-name="패스 625" d="M49.192,59.818V25.1A22.1,22.1,0,1,0,5,25.1V59.818h8.928l4.464-4.464,4.464,4.464h8.48L35.8,55.354l4.464,4.464ZM42.879,25.1a15.783,15.783,0,0,0-31.566,0V53.505l7.079-7.079,8.7,8.7,8.7-8.7L42.879,53.5Z" transform="translate(-5 -3.707)" fill="#f23c4c" fill-rule="evenodd"/>
      <path id="패스_623" data-name="패스 623" d="M15.289,11.157A3.157,3.157,0,1,1,12.132,8,3.157,3.157,0,0,1,15.289,11.157Z" transform="translate(3.574 7.076)" fill="#f23c4c"/>
      <path id="패스_624" data-name="패스 624" d="M16.128,14.313a3.157,3.157,0,1,0-3.157-3.157A3.157,3.157,0,0,0,16.128,14.313Z" transform="translate(12.19 7.076)" fill="#f23c4c"/>
    </g>
    <g id="ghost-character-2" data-name="ghost-character" transform="matrix(0.985, -0.174, 0.174, 0.985, -12776.748, 5006.719)">
      <path id="패스_1407-2" data-name="패스 1407" d="M49.192,59.818V25.1A22.1,22.1,0,1,0,5,25.1V59.818H49.192ZM42.879,53.5Z" transform="translate(3.809 -4.307)" fill="#f6b900" fill-rule="evenodd" opacity="0.1"/>
      <g id="그룹_3121" data-name="그룹 3121">
        <path id="패스_625-2" data-name="패스 625" d="M49.192,59.818V25.1A22.1,22.1,0,1,0,5,25.1V59.818h8.928l4.464-4.464,4.464,4.464h8.48L35.8,55.354l4.464,4.464ZM42.879,25.1a15.783,15.783,0,0,0-31.566,0V53.505l7.079-7.079,8.7,8.7,8.7-8.7L42.879,53.5Z" transform="translate(-5.001 -3.707)" fill="#f6b900" fill-rule="evenodd"/>
        <path id="패스_623-2" data-name="패스 623" d="M15.289,11.157A3.157,3.157,0,1,1,12.132,8,3.157,3.157,0,0,1,15.289,11.157Z" transform="translate(3.574 7.075)" fill="#f6b900"/>
        <path id="패스_624-2" data-name="패스 624" d="M16.128,14.313a3.157,3.157,0,1,0-3.157-3.157A3.157,3.157,0,0,0,16.128,14.313Z" transform="translate(12.19 7.075)" fill="#f6b900"/>
      </g>
    </g>
    <g id="ghost-character-3" data-name="ghost-character" transform="matrix(0.94, 0.342, -0.342, 0.94, -14114.423, 5579.29)">
      <path id="패스_1407-3" data-name="패스 1407" d="M49.192,59.818V25.1A22.1,22.1,0,1,0,5,25.1V59.818H49.192ZM42.879,53.5Z" transform="translate(3.809 -4.307)" fill="#f23c4c" fill-rule="evenodd" opacity="0.1"/>
      <path id="패스_625-3" data-name="패스 625" d="M49.192,59.818V25.1A22.1,22.1,0,1,0,5,25.1V59.818h8.928l4.464-4.464,4.464,4.464h8.48L35.8,55.354l4.464,4.464ZM42.879,25.1a15.783,15.783,0,0,0-31.566,0V53.505l7.079-7.079,8.7,8.7,8.7-8.7L42.879,53.5Z" transform="translate(-5 -3.707)" fill="#f23c4c" fill-rule="evenodd"/>
      <path id="패스_623-3" data-name="패스 623" d="M15.289,11.157A3.157,3.157,0,1,1,12.132,8,3.157,3.157,0,0,1,15.289,11.157Z" transform="translate(3.574 7.076)" fill="#f23c4c"/>
      <path id="패스_624-3" data-name="패스 624" d="M16.128,14.313a3.157,3.157,0,1,0-3.157-3.157A3.157,3.157,0,0,0,16.128,14.313Z" transform="translate(12.19 7.076)" fill="#f23c4c"/>
    </g>
    <g id="bell" transform="matrix(0.998, 0.07, -0.07, 0.998, -13224.259, 5356.738)">
      <path id="bell-2" data-name="bell" d="M27.291,5.658v.675A16.311,16.311,0,0,1,38.936,21.962v16.3h2.329v4.658H4V38.265H6.329v-16.3A16.311,16.311,0,0,1,17.975,6.333V5.658a4.658,4.658,0,1,1,9.316,0Zm0,41.924V45.253H17.975v2.329a4.658,4.658,0,1,0,9.316,0Z" transform="translate(2.196 -1.558)" fill="#f6b900" fill-rule="evenodd" opacity="0.1"/>
      <path id="bell-3" data-name="bell" d="M27.291,5.658v.675A16.311,16.311,0,0,1,38.936,21.962v16.3h2.329v4.658H4V38.265H6.329v-16.3A16.311,16.311,0,0,1,17.975,6.333V5.658a4.658,4.658,0,1,1,9.316,0Zm-16.3,32.607H34.278v-16.3a11.645,11.645,0,1,0-23.291,0Zm16.3,9.316V45.253H17.975v2.329a4.658,4.658,0,1,0,9.316,0Z" transform="translate(-4 -1.125)" fill="#f6b900" fill-rule="evenodd"/>
    </g>
    <g id="bell-4" data-name="bell" transform="matrix(0.951, -0.309, 0.309, 0.951, -14343.823, 4959.145)">
      <path id="bell-5" data-name="bell" d="M27.291,5.658v.675A16.311,16.311,0,0,1,38.936,21.962v16.3h2.329v4.658H4V38.265H6.329v-16.3A16.311,16.311,0,0,1,17.975,6.333V5.658a4.658,4.658,0,1,1,9.316,0Zm0,41.924V45.253H17.975v2.329a4.658,4.658,0,1,0,9.316,0Z" transform="translate(2.196 -1.558)" fill="#00cd98" fill-rule="evenodd" opacity="0.1"/>
      <path id="bell-6" data-name="bell" d="M27.291,5.658v.675A16.311,16.311,0,0,1,38.936,21.962v16.3h2.329v4.658H4V38.265H6.329v-16.3A16.311,16.311,0,0,1,17.975,6.333V5.658a4.658,4.658,0,1,1,9.316,0Zm-16.3,32.607H34.278v-16.3a11.645,11.645,0,1,0-23.291,0Zm16.3,9.316V45.253H17.975v2.329a4.658,4.658,0,1,0,9.316,0Z" transform="translate(-4 -1.125)" fill="#00cd98" fill-rule="evenodd"/>
    </g>
    <g id="games" transform="matrix(0.985, 0.174, -0.174, 0.985, -12742.425, 5501.43)">
      <path id="패스_1408" data-name="패스 1408" d="M18.739,5a18.739,18.739,0,1,0,0,37.478h26.77A18.739,18.739,0,0,0,45.509,5Z" transform="translate(6.218 -2.098)" fill="#5351fb" fill-rule="evenodd" opacity="0.1"/>
      <path id="패스_617" data-name="패스 617" d="M18.332,11.784a2.677,2.677,0,1,0,0,3.786A2.677,2.677,0,0,0,18.332,11.784Z" transform="translate(23.08 5.062)" fill="#5351fb"/>
      <path id="패스_618" data-name="패스 618" d="M16.668,9.663a2.677,2.677,0,1,1,0,3.786A2.677,2.677,0,0,1,16.668,9.663Z" transform="translate(26.637 1.505)" fill="#5351fb"/>
      <path id="패스_619" data-name="패스 619" d="M22.575,11.784a2.677,2.677,0,1,0,0,3.786A2.677,2.677,0,0,0,22.575,11.784Z" transform="translate(30.194 5.062)" fill="#5351fb"/>
      <path id="패스_620" data-name="패스 620" d="M16.668,13.905a2.677,2.677,0,1,1,0,3.786A2.677,2.677,0,0,1,16.668,13.905Z" transform="translate(26.637 8.619)" fill="#5351fb"/>
      <path id="패스_621" data-name="패스 621" d="M9.354,19.708H4V14.354H9.354V9h5.354v5.354h5.354v5.354H14.708v5.354H9.354Z" transform="translate(6.708 1.708)" fill="#5351fb"/>
      <path id="패스_622" data-name="패스 622" d="M18.739,5a18.739,18.739,0,1,0,0,37.478h26.77A18.739,18.739,0,0,0,45.509,5Zm26.77,5.354H18.739a13.385,13.385,0,0,0,0,26.77h26.77a13.385,13.385,0,0,0,0-26.77Z" transform="translate(0 -5)" fill="#5351fb" fill-rule="evenodd"/>
    </g>
    <g id="games-2" data-name="games" transform="matrix(0.999, 0.052, -0.052, 0.999, -14484.361, 5732.425)">
      <path id="패스_1408-2" data-name="패스 1408" d="M18.739,5a18.739,18.739,0,1,0,0,37.478h26.77A18.739,18.739,0,0,0,45.509,5Z" transform="translate(6.218 -2.098)" fill="#5351fb" fill-rule="evenodd" opacity="0.1"/>
      <path id="패스_617-2" data-name="패스 617" d="M18.332,11.784a2.677,2.677,0,1,0,0,3.786A2.677,2.677,0,0,0,18.332,11.784Z" transform="translate(23.08 5.062)" fill="#5351fb"/>
      <path id="패스_618-2" data-name="패스 618" d="M16.668,9.663a2.677,2.677,0,1,1,0,3.786A2.677,2.677,0,0,1,16.668,9.663Z" transform="translate(26.637 1.505)" fill="#5351fb"/>
      <path id="패스_619-2" data-name="패스 619" d="M22.575,11.784a2.677,2.677,0,1,0,0,3.786A2.677,2.677,0,0,0,22.575,11.784Z" transform="translate(30.194 5.062)" fill="#5351fb"/>
      <path id="패스_620-2" data-name="패스 620" d="M16.668,13.905a2.677,2.677,0,1,1,0,3.786A2.677,2.677,0,0,1,16.668,13.905Z" transform="translate(26.637 8.619)" fill="#5351fb"/>
      <path id="패스_621-2" data-name="패스 621" d="M9.354,19.708H4V14.354H9.354V9h5.354v5.354h5.354v5.354H14.708v5.354H9.354Z" transform="translate(6.708 1.708)" fill="#5351fb"/>
      <path id="패스_622-2" data-name="패스 622" d="M18.739,5a18.739,18.739,0,1,0,0,37.478h26.77A18.739,18.739,0,0,0,45.509,5Zm26.77,5.354H18.739a13.385,13.385,0,0,0,0,26.77h26.77a13.385,13.385,0,0,0,0-26.77Z" transform="translate(0 -5)" fill="#5351fb" fill-rule="evenodd"/>
    </g>
    <g id="games-3" data-name="games" transform="translate(-14074.671 4823.335) rotate(-11)">
      <path id="패스_1408-3" data-name="패스 1408" d="M18.739,5a18.739,18.739,0,1,0,0,37.478h26.77A18.739,18.739,0,0,0,45.509,5Z" transform="translate(6.218 -2.098)" fill="#5351fb" fill-rule="evenodd" opacity="0.1"/>
      <path id="패스_617-3" data-name="패스 617" d="M18.332,11.784a2.677,2.677,0,1,0,0,3.786A2.677,2.677,0,0,0,18.332,11.784Z" transform="translate(23.08 5.062)" fill="#5351fb"/>
      <path id="패스_618-3" data-name="패스 618" d="M16.668,9.663a2.677,2.677,0,1,1,0,3.786A2.677,2.677,0,0,1,16.668,9.663Z" transform="translate(26.637 1.505)" fill="#5351fb"/>
      <path id="패스_619-3" data-name="패스 619" d="M22.575,11.784a2.677,2.677,0,1,0,0,3.786A2.677,2.677,0,0,0,22.575,11.784Z" transform="translate(30.194 5.062)" fill="#5351fb"/>
      <path id="패스_620-3" data-name="패스 620" d="M16.668,13.905a2.677,2.677,0,1,1,0,3.786A2.677,2.677,0,0,1,16.668,13.905Z" transform="translate(26.637 8.619)" fill="#5351fb"/>
      <path id="패스_621-3" data-name="패스 621" d="M9.354,19.708H4V14.354H9.354V9h5.354v5.354h5.354v5.354H14.708v5.354H9.354Z" transform="translate(6.708 1.708)" fill="#5351fb"/>
      <path id="패스_622-3" data-name="패스 622" d="M18.739,5a18.739,18.739,0,1,0,0,37.478h26.77A18.739,18.739,0,0,0,45.509,5Zm26.77,5.354H18.739a13.385,13.385,0,0,0,0,26.77h26.77a13.385,13.385,0,0,0,0-26.77Z" transform="translate(0 -5)" fill="#5351fb" fill-rule="evenodd"/>
    </g>
    <g id="music" transform="matrix(0.966, 0.259, -0.259, 0.966, -13167.064, 4830.624)">
      <path id="music-2" data-name="music" d="M51.73,11.948a9.946,9.946,0,0,0-11.458-9.83L22.866,4.8a9.946,9.946,0,0,0-8.434,9.83V36.415a8.7,8.7,0,1,0,4.973,7.866V14.626a4.973,4.973,0,0,1,4.217-4.915L41.028,7.033a4.973,4.973,0,0,1,5.729,4.915V28.955a8.7,8.7,0,1,0,4.973,7.866ZM46.757,36.821a3.73,3.73,0,1,0-3.73,3.73A3.73,3.73,0,0,0,46.757,36.821ZM14.432,44.28a3.73,3.73,0,1,0-3.73,3.73A3.73,3.73,0,0,0,14.432,44.28Z" transform="translate(4.417 -0.311)" fill="#00cd98" stroke="#00cd98" stroke-width="3" fill-rule="evenodd" opacity="0.1"/>
      <path id="music-3" data-name="music" d="M51.73,11.948a9.946,9.946,0,0,0-11.458-9.83L22.866,4.8a9.946,9.946,0,0,0-8.434,9.83V36.415a8.7,8.7,0,1,0,4.973,7.866V14.626a4.973,4.973,0,0,1,4.217-4.915L41.028,7.033a4.973,4.973,0,0,1,5.729,4.915V28.955a8.7,8.7,0,1,0,4.973,7.866ZM46.757,36.821a3.73,3.73,0,1,0-3.73,3.73A3.73,3.73,0,0,0,46.757,36.821ZM14.432,44.28a3.73,3.73,0,1,0-3.73,3.73A3.73,3.73,0,0,0,14.432,44.28Z" transform="translate(-2 -2)" fill="#00cd98" stroke="#00cd98" stroke-width="3" fill-rule="evenodd"/>
    </g>
    <g id="music-4" data-name="music" transform="matrix(0.996, -0.087, 0.087, 0.996, -13758.025, 4917.54)">
      <path id="music-5" data-name="music" d="M51.73,11.948a9.946,9.946,0,0,0-11.458-9.83L22.866,4.8a9.946,9.946,0,0,0-8.434,9.83V36.415a8.7,8.7,0,1,0,4.973,7.866V14.626a4.973,4.973,0,0,1,4.217-4.915L41.028,7.033a4.973,4.973,0,0,1,5.729,4.915V28.955a8.7,8.7,0,1,0,4.973,7.866ZM46.757,36.821a3.73,3.73,0,1,0-3.73,3.73A3.73,3.73,0,0,0,46.757,36.821ZM14.432,44.28a3.73,3.73,0,1,0-3.73,3.73A3.73,3.73,0,0,0,14.432,44.28Z" transform="translate(4.417 -0.311)" fill="#f6b900" stroke="#f6b900" stroke-width="3" fill-rule="evenodd" opacity="0.1"/>
      <path id="music-6" data-name="music" d="M51.73,11.948a9.946,9.946,0,0,0-11.458-9.83L22.866,4.8a9.946,9.946,0,0,0-8.434,9.83V36.415a8.7,8.7,0,1,0,4.973,7.866V14.626a4.973,4.973,0,0,1,4.217-4.915L41.028,7.033a4.973,4.973,0,0,1,5.729,4.915V28.955a8.7,8.7,0,1,0,4.973,7.866ZM46.757,36.821a3.73,3.73,0,1,0-3.73,3.73A3.73,3.73,0,0,0,46.757,36.821ZM14.432,44.28a3.73,3.73,0,1,0-3.73,3.73A3.73,3.73,0,0,0,14.432,44.28Z" transform="translate(-2 -2)" fill="#f6b900" stroke="#f6b900" stroke-width="3" fill-rule="evenodd"/>
    </g>
    <g id="awards" transform="translate(-14013.135 5244.874) rotate(-16)">
      <path id="awards-2" data-name="awards" d="M38.885,18.942a16.923,16.923,0,0,1-7.261,13.906V50.407H25.365l-3.423-3.423L18.52,50.407H12.261V32.848A16.943,16.943,0,1,1,38.885,18.942Z" transform="translate(1.751 -2)" fill="#f6b900" fill-rule="evenodd" opacity="0.1"/>
      <path id="awards-3" data-name="awards" d="M38.885,18.942a16.923,16.923,0,0,1-7.261,13.906V50.407H25.365l-3.423-3.423L18.52,50.407H12.261V32.848A16.943,16.943,0,1,1,38.885,18.942Zm-4.841,0a12.1,12.1,0,1,1-12.1-12.1A12.1,12.1,0,0,1,34.044,18.942ZM17.1,44.979l4.841-4.841,4.841,4.841v-9.8a17.048,17.048,0,0,1-9.681,0Z" transform="translate(-5 -2)" fill="#f6b900" fill-rule="evenodd"/>
    </g>
    <g id="awards-4" data-name="awards" transform="matrix(0.978, 0.208, -0.208, 0.978, -13079.774, 5728.641)">
      <path id="awards-5" data-name="awards" d="M38.885,18.942a16.923,16.923,0,0,1-7.261,13.906V50.407H25.365l-3.423-3.423L18.52,50.407H12.261V32.848A16.943,16.943,0,1,1,38.885,18.942Z" transform="translate(1.751 -2)" fill="#00cd98" fill-rule="evenodd" opacity="0.1"/>
      <path id="awards-6" data-name="awards" d="M38.885,18.942a16.923,16.923,0,0,1-7.261,13.906V50.407H25.365l-3.423-3.423L18.52,50.407H12.261V32.848A16.943,16.943,0,1,1,38.885,18.942Zm-4.841,0a12.1,12.1,0,1,1-12.1-12.1A12.1,12.1,0,0,1,34.044,18.942ZM17.1,44.979l4.841-4.841,4.841,4.841v-9.8a17.048,17.048,0,0,1-9.681,0Z" transform="translate(-5 -2)" fill="#00cd98" fill-rule="evenodd"/>
    </g>
    <g id="pacman" transform="translate(-13961.101 5718.288) rotate(-20)">
      <path id="패스_2883" data-name="패스 2883" d="M29.065,3a24.961,24.961,0,0,1,15.81,5.614l4.03,4.03L45.3,16.251l0,0L33.48,28.065,43.612,38.2l0,0,5.305,5.305-3.935,3.935-.006-.006A25.065,25.065,0,1,1,29.065,3Z" transform="translate(4 -3)" fill="#00cd98" fill-rule="evenodd" opacity="0.1"/>
      <g id="그룹_3120" data-name="그룹 3120">
        <path id="패스_951" data-name="패스 951" d="M15.849,11.57a2.785,2.785,0,1,0-2.785-2.785A2.785,2.785,0,0,0,15.849,11.57Z" transform="translate(12.179 2.355)" fill="#00cd98"/>
        <path id="패스_952" data-name="패스 952" d="M29.065,3a24.961,24.961,0,0,1,15.81,5.614l4.03,4.03L45.3,16.251l0,0L33.48,28.065,43.612,38.2l0,0,5.305,5.305-3.935,3.935-.006-.006A25.065,25.065,0,1,1,29.065,3ZM25.6,28.065,41.01,43.472a19.495,19.495,0,1,1,0-30.815Z" transform="translate(-4 -3)" fill="#00cd98" fill-rule="evenodd"/>
      </g>
    </g>
    <g id="pacman-2" data-name="pacman" transform="translate(-14461.046 5340.857) rotate(30)">
      <path id="패스_2883-2" data-name="패스 2883" d="M29.065,3a24.961,24.961,0,0,1,15.81,5.614l4.03,4.03L45.3,16.251l0,0L33.48,28.065,43.612,38.2l0,0,5.305,5.305-3.935,3.935-.006-.006A25.065,25.065,0,1,1,29.065,3Z" transform="translate(4 -3)" fill="#f6b900" fill-rule="evenodd" opacity="0.1"/>
      <g id="그룹_3117" data-name="그룹 3117">
        <path id="패스_951-2" data-name="패스 951" d="M15.849,11.57a2.785,2.785,0,1,0-2.785-2.785A2.785,2.785,0,0,0,15.849,11.57Z" transform="translate(12.178 2.355)" fill="#f6b900"/>
        <path id="패스_952-2" data-name="패스 952" d="M29.065,3a24.961,24.961,0,0,1,15.81,5.614l4.03,4.03L45.3,16.251l0,0L33.48,28.065,43.612,38.2l0,0,5.305,5.305-3.935,3.935-.006-.006A25.065,25.065,0,1,1,29.065,3ZM25.6,28.065,41.01,43.472a19.495,19.495,0,1,1,0-30.815Z" transform="translate(-4 -3)" fill="#f6b900" fill-rule="evenodd"/>
      </g>
    </g>
    <g id="pacman-3" data-name="pacman" transform="matrix(0.966, -0.259, 0.259, 0.966, -12878.709, 4955.429)">
      <path id="패스_2883-3" data-name="패스 2883" d="M29.065,3a24.961,24.961,0,0,1,15.81,5.614l4.03,4.03L45.3,16.251l0,0L33.48,28.065,43.612,38.2l0,0,5.305,5.305-3.935,3.935-.006-.006A25.065,25.065,0,1,1,29.065,3Z" transform="translate(4 -3)" fill="#f23c4c" fill-rule="evenodd" opacity="0.1"/>
      <path id="패스_951-3" data-name="패스 951" d="M15.849,11.57a2.785,2.785,0,1,0-2.785-2.785A2.785,2.785,0,0,0,15.849,11.57Z" transform="translate(12.178 2.355)" fill="#f23c4c"/>
      <path id="패스_952-3" data-name="패스 952" d="M29.065,3a24.961,24.961,0,0,1,15.81,5.614l4.03,4.03L45.3,16.251l0,0L33.48,28.065,43.612,38.2l0,0,5.305,5.305-3.935,3.935-.006-.006A25.065,25.065,0,1,1,29.065,3ZM25.6,28.065,41.01,43.472a19.495,19.495,0,1,1,0-30.815Z" transform="translate(-4 -3)" fill="#f23c4c" fill-rule="evenodd"/>
    </g>
    <g id="crown" transform="matrix(0.985, 0.174, -0.174, 0.985, -12937.334, 5248.719)">
      <path id="crown-2" data-name="crown" d="M2.5,6.2,15.414,19.11l13.08-13.08,13.08,13.08L54.484,6.2V30.486a8.208,8.208,0,0,1-8.208,8.208H10.708A8.208,8.208,0,0,1,2.5,30.486Z" transform="translate(4.5 -6.031)" fill="#00cd98" fill-rule="evenodd" opacity="0.1"/>
      <path id="crown-3" data-name="crown" d="M2.5,6.2,15.414,19.11l13.08-13.08,13.08,13.08L54.484,6.2V30.486a8.208,8.208,0,0,1-8.208,8.208H10.708A8.208,8.208,0,0,1,2.5,30.486Zm46.512,13.18V30.486a2.736,2.736,0,0,1-2.736,2.736H10.708a2.736,2.736,0,0,1-2.736-2.736V19.374l7.442,7.442,13.08-13.08,13.08,13.08Z" transform="translate(-2.5 -6.031)" fill="#00cd98" fill-rule="evenodd"/>
    </g>
    <g id="crown-4" data-name="crown" transform="matrix(0.998, 0.07, -0.07, 0.998, -13546.407, 5652.574)">
      <path id="crown-5" data-name="crown" d="M2.5,6.2,15.414,19.11l13.08-13.08,13.08,13.08L54.484,6.2V30.486a8.208,8.208,0,0,1-8.208,8.208H10.708A8.208,8.208,0,0,1,2.5,30.486Z" transform="translate(4.5 -6.031)" fill="#f6b900" fill-rule="evenodd" opacity="0.1"/>
      <path id="crown-6" data-name="crown" d="M2.5,6.2,15.414,19.11l13.08-13.08,13.08,13.08L54.484,6.2V30.486a8.208,8.208,0,0,1-8.208,8.208H10.708A8.208,8.208,0,0,1,2.5,30.486Zm46.512,13.18V30.486a2.736,2.736,0,0,1-2.736,2.736H10.708a2.736,2.736,0,0,1-2.736-2.736V19.374l7.442,7.442,13.08-13.08,13.08,13.08Z" transform="translate(-2.5 -6.031)" fill="#f6b900" fill-rule="evenodd"/>
    </g>
    <g id="ghost-character-4" data-name="ghost-character" transform="translate(-13639.582 5425.494) rotate(-15)">
      <path id="패스_1407-4" data-name="패스 1407" d="M49.192,59.818V25.1A22.1,22.1,0,1,0,5,25.1V59.818H49.192ZM42.879,53.5Z" transform="translate(3.809 -4.307)" fill="#5351fb" fill-rule="evenodd" opacity="0.1"/>
      <g id="그룹_3118" data-name="그룹 3118">
        <path id="패스_625-4" data-name="패스 625" d="M49.192,59.818V25.1A22.1,22.1,0,1,0,5,25.1V59.818h8.928l4.464-4.464,4.464,4.464h8.48L35.8,55.354l4.464,4.464ZM42.879,25.1a15.783,15.783,0,0,0-31.566,0V53.505l7.079-7.079,8.7,8.7,8.7-8.7L42.879,53.5Z" transform="translate(-4.999 -3.708)" fill="#5351fb" fill-rule="evenodd"/>
        <path id="패스_623-4" data-name="패스 623" d="M15.289,11.157A3.157,3.157,0,1,1,12.132,8,3.157,3.157,0,0,1,15.289,11.157Z" transform="translate(3.575 7.075)" fill="#5351fb"/>
        <path id="패스_624-4" data-name="패스 624" d="M16.128,14.313a3.157,3.157,0,1,0-3.157-3.157A3.157,3.157,0,0,0,16.128,14.313Z" transform="translate(12.191 7.075)" fill="#5351fb"/>
      </g>
    </g>
  </g>
</svg>
