<svg xmlns="http://www.w3.org/2000/svg"  viewBox="0 0 24 17.603"><path d="M24.484,13.894C23.423,9.1,21.827,6.54,19.459,5.841a5.357,5.357,0,0,0-1.533-.216,6.894,6.894,0,0,0-1.914.344,9.772,9.772,0,0,1-2.886.456,9.773,9.773,0,0,1-2.888-.456,6.9,6.9,0,0,0-1.912-.344,5.787,5.787,0,0,0-1.587.216c-2.355.7-3.95,3.254-5.026,8.05-1.157,5.162-.587,8.42,1.6,9.176a2.831,2.831,0,0,0,.932.161c1.5,0,2.7-1.247,3.517-2.267.927-1.155,2.011-1.741,5.367-1.741,3,0,4.238.407,5.309,1.741a7.317,7.317,0,0,0,1.945,1.8,2.933,2.933,0,0,0,2.508.319c1.291-.44,2.031-1.605,2.2-3.462A19.561,19.561,0,0,0,24.484,13.894Zm-13.757-.269h-1.6v1.6a.8.8,0,0,1-1.6,0v-1.6h-1.6a.8.8,0,1,1,0-1.6h1.6v-1.6a.8.8,0,1,1,1.6,0v1.6h1.6a.8.8,0,1,1,0,1.6Zm4.2.2a1,1,0,1,1,1-1A1,1,0,0,1,14.926,13.825Zm2.2,2.2a1,1,0,1,1,1-1,1,1,0,0,1-1,1Zm0-4.4a1,1,0,1,1,1-1,1,1,0,0,1-1,1Zm2.2,2.2a1,1,0,1,1,1-1A1,1,0,0,1,19.327,13.825Z" transform="translate(-1.127 -5.625)"  fill="currentColor" /></svg>